<?xml version="1.0" encoding="UTF-8" standalone="no"?>
<!DOCTYPE svg PUBLIC "-//W3C//DTD SVG 1.1//EN" "http://www.w3.org/Graphics/SVG/1.1/DTD/svg11.dtd">
<svg width="100%" height="100%" viewBox="0 0 500 500" version="1.1" xmlns="http://www.w3.org/2000/svg" xmlns:xlink="http://www.w3.org/1999/xlink" xml:space="preserve" xmlns:serif="http://www.serif.com/" style="fill-rule:evenodd;clip-rule:evenodd;stroke-linecap:round;stroke-linejoin:round;stroke-miterlimit:1.5;">
    <g transform="matrix(0.838461,0,0,0.838461,126.769,40.3846)">
        <path d="M292.538,72.829C293.19,72.074 293.763,71.872 294.19,71.81C294.71,71.735 295.375,71.83 296.035,72.187C296.695,72.544 297.14,73.049 297.363,73.525C297.545,73.917 297.691,74.507 297.42,75.468L267.345,181.928C266.088,186.376 268.669,191.002 273.109,192.261C277.549,193.52 282.167,190.935 283.423,186.487L313.498,80.027C319.191,59.876 293.595,46.038 279.908,61.867L115.501,252.001C102.961,266.502 113.244,289.054 132.394,289.054L281.22,289.054C285.835,289.054 289.575,285.306 289.575,280.683C289.575,276.061 285.835,272.313 281.22,272.313L132.394,272.313C127.561,272.313 124.966,266.622 128.131,262.962L292.538,72.829Z" style="fill:rgb(35,184,204);fill-rule:nonzero;"/>
    </g>
    <g transform="matrix(1.40136,0,0,1,24.966,292)">
        <path d="M25,71L172,71L25,71Z" style="fill:none;stroke:black;stroke-width:14.46px;"/>
    </g>
    <g transform="matrix(5.4151e-17,-0.884354,1,6.12323e-17,-11,385.109)">
        <path d="M25,71L172,71L25,71Z" style="fill:none;stroke:black;stroke-width:18.65px;"/>
    </g>
    <g transform="matrix(0.838461,0,0,0.838461,126.769,40.3846)">
        <path d="M212.462,427.172C211.81,427.926 211.237,428.128 210.81,428.19C210.29,428.265 209.625,428.17 208.965,427.813C208.305,427.456 207.86,426.951 207.637,426.475C207.454,426.083 207.309,425.493 207.58,424.532L237.655,318.072C238.912,313.624 236.331,308.998 231.891,307.739C227.451,306.48 222.833,309.065 221.577,313.513L191.502,419.973C185.809,440.124 211.405,453.962 225.092,438.133L389.499,247.999C402.039,233.498 391.756,210.946 372.606,210.946L217.943,210.946C213.329,210.946 209.588,214.694 209.588,219.317C209.588,223.939 213.329,227.687 217.943,227.687L372.606,227.687C377.439,227.687 380.034,233.379 376.869,237.038L212.462,427.172Z" style="fill:rgb(35,184,204);fill-rule:nonzero;"/>
    </g>
    <g transform="matrix(1,0,0,1,-7,15.7453)">
        <path d="M92,315.377L117,315.377L117,258L163,258L163,286.689L204,286.689L204,315.377L258,315.377" style="fill:none;stroke:black;stroke-width:17.61px;"/>
    </g>
</svg>
